<svg xmlns="http://www.w3.org/2000/svg" version="1.1" width="45" height="45">
    <g fill="none" fill-rule="evenodd" stroke="#000000" stroke-width="1.5" stroke-linecap="round" stroke-linejoin="round">
        <path d="M22.5,11.63V6M20,8h5" stroke-linejoin="miter"/>
        <path d="M22.5,25s4.5-7.5,3-10.5c0,0-1-2.5-3-2.5s-3,2.5-3,2.5c-1.5,3,3,10.5,3,10.5" fill="#000000" stroke-linecap="butt" stroke-linejoin="miter"/>
        <path d="M11.5,37c5.5,3.5,15.5,3.5,21,0v-7s9-4.5,6-10.5c-4-6.5-13.5-3.5-16,4V27v-3.5c-3.5-7.5-13-10.5-16-4-3,6,5,10,5,10V37z" fill="#000000"/>
        <path d="M20,8h5" stroke-linejoin="miter"/>
        <path d="M32,29.5s8.5-4,6.03-9.65C34.15,14,25,18,22.5,24.5l0.01,2.1-0.01-2.1C20,18,9.906,14,6.997,19.85c-2.497,5.65,4.853,9,4.853,9" stroke="#ffffff"/>
        <path d="M11.5,30c5.5-3,15.5-3,21,0m-21,3.5c5.5-3,15.5-3,21,0m-21,3.5c5.5-3,15.5-3,21,0" stroke="#ffffff"/>
    </g>
</svg>
