<svg xmlns="http://www.w3.org/2000/svg" version="1.1" width="45" height="45">
    <g fill="#ffffff" stroke="#000000" stroke-width="1.5" stroke-linecap="round" stroke-linejoin="round">
        <g fill="none" stroke-linecap="butt">
            <path d="M9,36c3.39-.97,10.11.43,13.5-2c3.39,2.43,10.11,1.03,13.5,2c0,0,1.65.54,3,2c-0.68.97-1.65.99-3,.5c-3.39-.97-10.11.46-13.5-1c-3.39,1.46-10.11.03-13.5,1c-1.354.49-2.323.47-3-.5c1.354-1.94,3-2,3-2"/>
            <path d="M15,32c2.5,2.5,12.5,2.5,15,0c0.5-1.5,0-2,0-2c0-2.5-2.5-4-2.5-4c5.5-1.5,6-11.5-5-15.5c-11,4-10.5,14-5,15.5c0,0-2.5,1.5-2.5,4c0,0-0.5,0.5,0,2z"/>
            <path d="M25,8a2.5,2.5,0,1,1,-5,0,2.5,2.5,0,1,1,5,0z"/>
        </g>
        <path d="M17.5,26h10M15,30h15m-7.5-14.5v5M20,18h5" stroke-linejoin="miter"/>
    </g>
</svg>
