<svg xmlns="http://www.w3.org/2000/svg" version="1.1" width="45" height="45">
    <g fill="#ffffff" stroke="#000000" stroke-width="1.5" stroke-linejoin="round">
        <path d="M8,12a2,2 0 1,1 -4,0 2,2 0 1,1 4,0z"/>
        <path d="M24,12a2,2 0 1,1 -4,0 2,2 0 1,1 4,0z"/>
        <path d="M41,12a2,2 0 1,1 -4,0 2,2 0 1,1 4,0z"/>
        <path d="M16,8a2,2 0 1,1 -4,0 2,2 0 1,1 4,0z"/>
        <path d="M33,8a2,2 0 1,1 -4,0 2,2 0 1,1 4,0z"/>
        <path d="M9,26c8.5-1.5,21-1.5,27,0l2-12-7,11V11l-5.5,13.5-3-15-3,15-5.5-14V25L7,14l2,12z" stroke-linecap="butt"/>
        <path d="M9,26c0,2 1.5,2 2.5,4 1,1.5 1,1 0.5,3.5-1.5,1-1.5,2.5-1.5,2.5-1.5,1.5 0.5,2.5 0.5,2.5 6.5,1 16.5,1 23,0 0,0 1.5-1 0-2.5 0,0 0.5-1.5-1-2.5-0.5-2.5-0.5-2 0.5-3.5 1-2 2.5-2 2.5-4-8.5-1.5-18.5-1.5-27,0z" stroke-linecap="butt"/>
        <path d="M11.5,30c3.5-1,18.5-1,22,0" fill="none"/>
        <path d="M12,33.5c6-1,15-1,21,0" fill="none"/>
    </g>
</svg>
